<mxfile host="app.diagrams.net" modified="2024-02-19T15:14:40.296Z" agent="Mozilla/5.0 (Windows NT 10.0; Win64; x64) AppleWebKit/537.36 (KHTML, like Gecko) Chrome/121.0.0.0 Safari/537.36" etag="9Cjlg2Dz68Aqs7r7mD-F" version="23.1.5" type="device">
  <diagram id="R2lEEEUBdFMjLlhIrx00" name="Page-1">
    <mxGraphModel dx="3600" dy="3360" grid="1" gridSize="10" guides="1" tooltips="1" connect="1" arrows="1" fold="1" page="1" pageScale="1" pageWidth="850" pageHeight="1100" math="0" shadow="0" extFonts="Permanent Marker^https://fonts.googleapis.com/css?family=Permanent+Marker">
      <root>
        <mxCell id="0" />
        <mxCell id="1" parent="0" />
        <mxCell id="j8BEduWui1V6I7mG3_1c-1" value="Project" style="rounded=0;whiteSpace=wrap;html=1;" parent="1" vertex="1">
          <mxGeometry x="820" y="-90" width="120" height="60" as="geometry" />
        </mxCell>
        <mxCell id="j8BEduWui1V6I7mG3_1c-2" value="Team" style="rounded=0;whiteSpace=wrap;html=1;" parent="1" vertex="1">
          <mxGeometry x="674.87" y="-1057.75" width="120" height="60" as="geometry" />
        </mxCell>
        <mxCell id="j8BEduWui1V6I7mG3_1c-5" value="Event" style="rounded=0;whiteSpace=wrap;html=1;" parent="1" vertex="1">
          <mxGeometry x="270" y="350" width="120" height="60" as="geometry" />
        </mxCell>
        <mxCell id="j8BEduWui1V6I7mG3_1c-6" value="Member&lt;div&gt;&lt;br/&gt;&lt;/div&gt;" style="rounded=0;whiteSpace=wrap;html=1;" parent="1" vertex="1">
          <mxGeometry x="-398.71" y="-1090.7499999999998" width="120" height="48.75" as="geometry" />
        </mxCell>
        <mxCell id="j8BEduWui1V6I7mG3_1c-7" value="ContactMessage" style="rounded=0;whiteSpace=wrap;html=1;" parent="1" vertex="1">
          <mxGeometry x="554.87" y="230" width="120" height="60" as="geometry" />
        </mxCell>
        <mxCell id="z_t3NJwSn25sg5SDZqZX-10" value="&lt;u&gt;TeamID&lt;/u&gt;" style="ellipse;whiteSpace=wrap;html=1;" vertex="1" parent="1">
          <mxGeometry x="575" y="-1188.75" width="120" height="40" as="geometry" />
        </mxCell>
        <mxCell id="z_t3NJwSn25sg5SDZqZX-11" value="Leaders" style="ellipse;whiteSpace=wrap;html=1;" vertex="1" parent="1">
          <mxGeometry x="711.29" y="-1188.75" width="120" height="40" as="geometry" />
        </mxCell>
        <mxCell id="z_t3NJwSn25sg5SDZqZX-12" value="Name" style="ellipse;whiteSpace=wrap;html=1;rotation=30;" vertex="1" parent="1">
          <mxGeometry x="845" y="-1188.75" width="120" height="40" as="geometry" />
        </mxCell>
        <mxCell id="z_t3NJwSn25sg5SDZqZX-13" value="" style="endArrow=none;html=1;rounded=0;exitX=0.5;exitY=0;exitDx=0;exitDy=0;" edge="1" parent="1" target="z_t3NJwSn25sg5SDZqZX-11">
          <mxGeometry width="50" height="50" relative="1" as="geometry">
            <mxPoint x="739.1099999999999" y="-1057.75" as="sourcePoint" />
            <mxPoint x="819.24" y="-1198.75" as="targetPoint" />
          </mxGeometry>
        </mxCell>
        <mxCell id="z_t3NJwSn25sg5SDZqZX-14" value="" style="endArrow=none;html=1;rounded=0;entryX=0.5;entryY=1;entryDx=0;entryDy=0;exitX=0.75;exitY=0;exitDx=0;exitDy=0;" edge="1" parent="1" target="z_t3NJwSn25sg5SDZqZX-12">
          <mxGeometry width="50" height="50" relative="1" as="geometry">
            <mxPoint x="769.1099999999999" y="-1057.75" as="sourcePoint" />
            <mxPoint x="875.0023895014194" y="-1172.1899834317378" as="targetPoint" />
          </mxGeometry>
        </mxCell>
        <mxCell id="z_t3NJwSn25sg5SDZqZX-15" value="" style="endArrow=none;html=1;rounded=0;entryX=0.563;entryY=0.976;entryDx=0;entryDy=0;entryPerimeter=0;exitX=0.178;exitY=-0.032;exitDx=0;exitDy=0;exitPerimeter=0;" edge="1" parent="1" target="z_t3NJwSn25sg5SDZqZX-10">
          <mxGeometry width="50" height="50" relative="1" as="geometry">
            <mxPoint x="700.47" y="-1059.67" as="sourcePoint" />
            <mxPoint x="749.76" y="-1159.75" as="targetPoint" />
          </mxGeometry>
        </mxCell>
        <mxCell id="z_t3NJwSn25sg5SDZqZX-16" value="" style="endArrow=none;html=1;rounded=0;exitX=0;exitY=0;exitDx=0;exitDy=0;entryX=0.5;entryY=1;entryDx=0;entryDy=0;" edge="1" parent="1" source="z_t3NJwSn25sg5SDZqZX-11" target="z_t3NJwSn25sg5SDZqZX-21">
          <mxGeometry width="50" height="50" relative="1" as="geometry">
            <mxPoint x="775" y="-1118.75" as="sourcePoint" />
            <mxPoint x="765" y="-1174.75" as="targetPoint" />
          </mxGeometry>
        </mxCell>
        <mxCell id="z_t3NJwSn25sg5SDZqZX-17" value="" style="endArrow=none;html=1;rounded=0;exitX=0.5;exitY=0;exitDx=0;exitDy=0;entryX=0.5;entryY=1;entryDx=0;entryDy=0;" edge="1" parent="1" source="z_t3NJwSn25sg5SDZqZX-11" target="z_t3NJwSn25sg5SDZqZX-19">
          <mxGeometry width="50" height="50" relative="1" as="geometry">
            <mxPoint x="818.5" y="-1128.75" as="sourcePoint" />
            <mxPoint x="825" y="-1188.75" as="targetPoint" />
          </mxGeometry>
        </mxCell>
        <mxCell id="z_t3NJwSn25sg5SDZqZX-18" value="" style="endArrow=none;html=1;rounded=0;entryX=0.344;entryY=1.04;entryDx=0;entryDy=0;exitX=0.754;exitY=0.031;exitDx=0;exitDy=0;exitPerimeter=0;entryPerimeter=0;" edge="1" parent="1" source="z_t3NJwSn25sg5SDZqZX-11" target="z_t3NJwSn25sg5SDZqZX-22">
          <mxGeometry width="50" height="50" relative="1" as="geometry">
            <mxPoint x="852" y="-1118.75" as="sourcePoint" />
            <mxPoint x="885" y="-1174.75" as="targetPoint" />
          </mxGeometry>
        </mxCell>
        <mxCell id="z_t3NJwSn25sg5SDZqZX-19" value="Vice" style="ellipse;whiteSpace=wrap;html=1;" vertex="1" parent="1">
          <mxGeometry x="721.29" y="-1340" width="120" height="40" as="geometry" />
        </mxCell>
        <mxCell id="z_t3NJwSn25sg5SDZqZX-21" value="President&lt;div&gt;&lt;br/&gt;&lt;/div&gt;" style="ellipse;whiteSpace=wrap;html=1;rotation=-30;" vertex="1" parent="1">
          <mxGeometry x="627.56" y="-1291.25" width="104.87" height="42.5" as="geometry" />
        </mxCell>
        <mxCell id="z_t3NJwSn25sg5SDZqZX-22" value="vice president&lt;div&gt;&lt;br/&gt;&lt;/div&gt;" style="ellipse;whiteSpace=wrap;html=1;rotation=30;" vertex="1" parent="1">
          <mxGeometry x="830.86" y="-1300" width="104.87" height="42.5" as="geometry" />
        </mxCell>
        <mxCell id="z_t3NJwSn25sg5SDZqZX-23" style="edgeStyle=orthogonalEdgeStyle;rounded=0;orthogonalLoop=1;jettySize=auto;html=1;exitX=0.5;exitY=1;exitDx=0;exitDy=0;" edge="1" parent="1" source="j8BEduWui1V6I7mG3_1c-2" target="j8BEduWui1V6I7mG3_1c-2">
          <mxGeometry relative="1" as="geometry" />
        </mxCell>
        <mxCell id="z_t3NJwSn25sg5SDZqZX-24" value="Title" style="ellipse;whiteSpace=wrap;html=1;rotation=-30;" vertex="1" parent="1">
          <mxGeometry x="701.29" y="-222.94" width="110" height="40" as="geometry" />
        </mxCell>
        <mxCell id="z_t3NJwSn25sg5SDZqZX-25" value="prototybeImg" style="ellipse;whiteSpace=wrap;html=1;rotation=0;" vertex="1" parent="1">
          <mxGeometry x="830" y="-240" width="110" height="40" as="geometry" />
        </mxCell>
        <mxCell id="z_t3NJwSn25sg5SDZqZX-26" value="Summary" style="ellipse;whiteSpace=wrap;html=1;rotation=15;" vertex="1" parent="1">
          <mxGeometry x="920" y="-160" width="120" height="50" as="geometry" />
        </mxCell>
        <mxCell id="z_t3NJwSn25sg5SDZqZX-27" value="" style="endArrow=none;html=1;rounded=0;entryX=0.5;entryY=1;entryDx=0;entryDy=0;exitX=0;exitY=0;exitDx=0;exitDy=0;" edge="1" parent="1" source="j8BEduWui1V6I7mG3_1c-1" target="z_t3NJwSn25sg5SDZqZX-24">
          <mxGeometry width="50" height="50" relative="1" as="geometry">
            <mxPoint x="660" y="-20" as="sourcePoint" />
            <mxPoint x="710" y="-70" as="targetPoint" />
          </mxGeometry>
        </mxCell>
        <mxCell id="z_t3NJwSn25sg5SDZqZX-28" value="" style="endArrow=none;html=1;rounded=0;exitX=0.411;exitY=-0.029;exitDx=0;exitDy=0;exitPerimeter=0;" edge="1" parent="1" source="j8BEduWui1V6I7mG3_1c-1" target="z_t3NJwSn25sg5SDZqZX-25">
          <mxGeometry width="50" height="50" relative="1" as="geometry">
            <mxPoint x="910" y="-70" as="sourcePoint" />
            <mxPoint x="855" y="-158" as="targetPoint" />
          </mxGeometry>
        </mxCell>
        <mxCell id="z_t3NJwSn25sg5SDZqZX-29" value="" style="endArrow=none;html=1;rounded=0;exitX=0.866;exitY=-0.029;exitDx=0;exitDy=0;exitPerimeter=0;" edge="1" parent="1" source="j8BEduWui1V6I7mG3_1c-1" target="z_t3NJwSn25sg5SDZqZX-26">
          <mxGeometry width="50" height="50" relative="1" as="geometry">
            <mxPoint x="869" y="-42" as="sourcePoint" />
            <mxPoint x="866" y="-150" as="targetPoint" />
          </mxGeometry>
        </mxCell>
        <mxCell id="z_t3NJwSn25sg5SDZqZX-31" value="" style="endArrow=none;html=1;rounded=0;exitX=0.169;exitY=-0.038;exitDx=0;exitDy=0;exitPerimeter=0;" edge="1" parent="1" source="j8BEduWui1V6I7mG3_1c-7" target="z_t3NJwSn25sg5SDZqZX-36">
          <mxGeometry width="50" height="50" relative="1" as="geometry">
            <mxPoint x="580" y="40" as="sourcePoint" />
            <mxPoint x="530.1763809020504" y="189.31851652578143" as="targetPoint" />
          </mxGeometry>
        </mxCell>
        <mxCell id="z_t3NJwSn25sg5SDZqZX-33" value="&lt;u&gt;EmailAdd&lt;/u&gt;&lt;div&gt;&lt;br&gt;&lt;/div&gt;" style="ellipse;whiteSpace=wrap;html=1;rotation=30;" vertex="1" parent="1">
          <mxGeometry x="701.29" y="120" width="110" height="40" as="geometry" />
        </mxCell>
        <mxCell id="z_t3NJwSn25sg5SDZqZX-34" value="" style="endArrow=none;html=1;rounded=0;entryX=0.5;entryY=1;entryDx=0;entryDy=0;exitX=0.5;exitY=0;exitDx=0;exitDy=0;" edge="1" parent="1" source="j8BEduWui1V6I7mG3_1c-7" target="z_t3NJwSn25sg5SDZqZX-46">
          <mxGeometry width="50" height="50" relative="1" as="geometry">
            <mxPoint x="576" y="236" as="sourcePoint" />
            <mxPoint x="619.8236190979496" y="139.31851652578143" as="targetPoint" />
          </mxGeometry>
        </mxCell>
        <mxCell id="z_t3NJwSn25sg5SDZqZX-35" value="" style="endArrow=none;html=1;rounded=0;entryX=0.314;entryY=0.938;entryDx=0;entryDy=0;exitX=0.819;exitY=-0.004;exitDx=0;exitDy=0;entryPerimeter=0;exitPerimeter=0;" edge="1" parent="1" source="j8BEduWui1V6I7mG3_1c-7" target="z_t3NJwSn25sg5SDZqZX-33">
          <mxGeometry width="50" height="50" relative="1" as="geometry">
            <mxPoint x="620" y="240" as="sourcePoint" />
            <mxPoint x="635" y="140" as="targetPoint" />
          </mxGeometry>
        </mxCell>
        <mxCell id="z_t3NJwSn25sg5SDZqZX-36" value="Name" style="ellipse;whiteSpace=wrap;html=1;" vertex="1" parent="1">
          <mxGeometry x="470" y="150" width="120" height="40" as="geometry" />
        </mxCell>
        <mxCell id="z_t3NJwSn25sg5SDZqZX-37" value="" style="endArrow=none;html=1;rounded=0;exitX=0;exitY=0;exitDx=0;exitDy=0;entryX=0.5;entryY=1;entryDx=0;entryDy=0;" edge="1" parent="1" source="z_t3NJwSn25sg5SDZqZX-36" target="z_t3NJwSn25sg5SDZqZX-41">
          <mxGeometry width="50" height="50" relative="1" as="geometry">
            <mxPoint x="419" y="220" as="sourcePoint" />
            <mxPoint x="409" y="164" as="targetPoint" />
          </mxGeometry>
        </mxCell>
        <mxCell id="z_t3NJwSn25sg5SDZqZX-38" value="" style="endArrow=none;html=1;rounded=0;exitX=0.5;exitY=0;exitDx=0;exitDy=0;entryX=0.5;entryY=1;entryDx=0;entryDy=0;" edge="1" parent="1" source="z_t3NJwSn25sg5SDZqZX-36" target="z_t3NJwSn25sg5SDZqZX-40">
          <mxGeometry width="50" height="50" relative="1" as="geometry">
            <mxPoint x="462.5" y="210" as="sourcePoint" />
            <mxPoint x="469" y="150" as="targetPoint" />
          </mxGeometry>
        </mxCell>
        <mxCell id="z_t3NJwSn25sg5SDZqZX-40" value="Lname" style="ellipse;whiteSpace=wrap;html=1;" vertex="1" parent="1">
          <mxGeometry x="480" y="50" width="120" height="40" as="geometry" />
        </mxCell>
        <mxCell id="z_t3NJwSn25sg5SDZqZX-41" value="Fname" style="ellipse;whiteSpace=wrap;html=1;rotation=-30;" vertex="1" parent="1">
          <mxGeometry x="390" y="90" width="104.87" height="42.5" as="geometry" />
        </mxCell>
        <mxCell id="z_t3NJwSn25sg5SDZqZX-43" value="" style="endArrow=none;html=1;rounded=0;exitX=1;exitY=0.5;exitDx=0;exitDy=0;" edge="1" parent="1" source="j8BEduWui1V6I7mG3_1c-7" target="z_t3NJwSn25sg5SDZqZX-44">
          <mxGeometry width="50" height="50" relative="1" as="geometry">
            <mxPoint x="510" y="90" as="sourcePoint" />
            <mxPoint x="800" y="230" as="targetPoint" />
          </mxGeometry>
        </mxCell>
        <mxCell id="z_t3NJwSn25sg5SDZqZX-44" value="Message" style="ellipse;whiteSpace=wrap;html=1;" vertex="1" parent="1">
          <mxGeometry x="710" y="220" width="110" height="35" as="geometry" />
        </mxCell>
        <mxCell id="z_t3NJwSn25sg5SDZqZX-46" value="PhoneNum" style="ellipse;shape=doubleEllipse;margin=3;whiteSpace=wrap;html=1;align=center;rotation=15;" vertex="1" parent="1">
          <mxGeometry x="571.29" y="100.17" width="130" height="50" as="geometry" />
        </mxCell>
        <mxCell id="z_t3NJwSn25sg5SDZqZX-47" value="AppForm" style="ellipse;whiteSpace=wrap;html=1;align=center;" vertex="1" parent="1">
          <mxGeometry x="360" y="230" width="100" height="40" as="geometry" />
        </mxCell>
        <mxCell id="z_t3NJwSn25sg5SDZqZX-48" value="" style="endArrow=none;html=1;rounded=0;exitX=0.5;exitY=1;exitDx=0;exitDy=0;entryX=0.5;entryY=0;entryDx=0;entryDy=0;" edge="1" parent="1" source="z_t3NJwSn25sg5SDZqZX-47" target="j8BEduWui1V6I7mG3_1c-5">
          <mxGeometry relative="1" as="geometry">
            <mxPoint x="390" y="220" as="sourcePoint" />
            <mxPoint x="550" y="220" as="targetPoint" />
          </mxGeometry>
        </mxCell>
        <mxCell id="z_t3NJwSn25sg5SDZqZX-49" value="Name&amp;nbsp;" style="ellipse;whiteSpace=wrap;html=1;align=center;rotation=30;" vertex="1" parent="1">
          <mxGeometry x="419.87" y="320" width="100" height="40" as="geometry" />
        </mxCell>
        <mxCell id="z_t3NJwSn25sg5SDZqZX-50" value="Date&amp;nbsp;" style="ellipse;whiteSpace=wrap;html=1;align=center;rotation=-15;" vertex="1" parent="1">
          <mxGeometry x="180" y="255" width="100" height="30" as="geometry" />
        </mxCell>
        <mxCell id="z_t3NJwSn25sg5SDZqZX-51" value="Location" style="ellipse;whiteSpace=wrap;html=1;align=center;rotation=-30;" vertex="1" parent="1">
          <mxGeometry x="160" y="310" width="100" height="40" as="geometry" />
        </mxCell>
        <mxCell id="z_t3NJwSn25sg5SDZqZX-55" value="" style="endArrow=none;html=1;rounded=0;exitX=0.576;exitY=1.103;exitDx=0;exitDy=0;exitPerimeter=0;entryX=0.174;entryY=-0.029;entryDx=0;entryDy=0;entryPerimeter=0;" edge="1" parent="1" source="z_t3NJwSn25sg5SDZqZX-50" target="j8BEduWui1V6I7mG3_1c-5">
          <mxGeometry relative="1" as="geometry">
            <mxPoint x="410" y="230" as="sourcePoint" />
            <mxPoint x="570" y="230" as="targetPoint" />
          </mxGeometry>
        </mxCell>
        <mxCell id="z_t3NJwSn25sg5SDZqZX-56" value="" style="endArrow=none;html=1;rounded=0;exitX=0.5;exitY=1;exitDx=0;exitDy=0;entryX=0;entryY=0.5;entryDx=0;entryDy=0;" edge="1" parent="1" source="z_t3NJwSn25sg5SDZqZX-51" target="j8BEduWui1V6I7mG3_1c-5">
          <mxGeometry relative="1" as="geometry">
            <mxPoint x="140" y="440" as="sourcePoint" />
            <mxPoint x="300" y="440" as="targetPoint" />
          </mxGeometry>
        </mxCell>
        <mxCell id="z_t3NJwSn25sg5SDZqZX-57" value="" style="endArrow=none;html=1;rounded=0;exitX=0.5;exitY=1;exitDx=0;exitDy=0;entryX=1;entryY=0.25;entryDx=0;entryDy=0;" edge="1" parent="1" source="z_t3NJwSn25sg5SDZqZX-49" target="j8BEduWui1V6I7mG3_1c-5">
          <mxGeometry relative="1" as="geometry">
            <mxPoint x="410" y="230" as="sourcePoint" />
            <mxPoint x="570" y="230" as="targetPoint" />
          </mxGeometry>
        </mxCell>
        <mxCell id="z_t3NJwSn25sg5SDZqZX-58" value="Speakers&lt;div&gt;&lt;br/&gt;&lt;/div&gt;" style="ellipse;whiteSpace=wrap;html=1;align=center;rotation=0;" vertex="1" parent="1">
          <mxGeometry x="260" y="210" width="100" height="40" as="geometry" />
        </mxCell>
        <mxCell id="z_t3NJwSn25sg5SDZqZX-59" value="" style="endArrow=none;html=1;rounded=0;exitX=0.5;exitY=1;exitDx=0;exitDy=0;entryX=0.321;entryY=-0.075;entryDx=0;entryDy=0;entryPerimeter=0;" edge="1" parent="1" source="z_t3NJwSn25sg5SDZqZX-58" target="j8BEduWui1V6I7mG3_1c-5">
          <mxGeometry relative="1" as="geometry">
            <mxPoint x="100" y="500" as="sourcePoint" />
            <mxPoint x="230" y="440" as="targetPoint" />
          </mxGeometry>
        </mxCell>
        <mxCell id="z_t3NJwSn25sg5SDZqZX-62" value="EmailAdd&lt;div&gt;&lt;br/&gt;&lt;/div&gt;" style="ellipse;whiteSpace=wrap;html=1;rotation=30;" vertex="1" parent="1">
          <mxGeometry x="-258.71000000000004" y="-1238.75" width="110" height="40" as="geometry" />
        </mxCell>
        <mxCell id="z_t3NJwSn25sg5SDZqZX-63" value="" style="endArrow=none;html=1;rounded=0;entryX=0.5;entryY=1;entryDx=0;entryDy=0;exitX=0.576;exitY=-0.017;exitDx=0;exitDy=0;exitPerimeter=0;" edge="1" parent="1" target="z_t3NJwSn25sg5SDZqZX-72" source="j8BEduWui1V6I7mG3_1c-6">
          <mxGeometry width="50" height="50" relative="1" as="geometry">
            <mxPoint x="-350" y="-1128.75" as="sourcePoint" />
            <mxPoint x="-340.17638090205037" y="-1219.4314834742186" as="targetPoint" />
          </mxGeometry>
        </mxCell>
        <mxCell id="z_t3NJwSn25sg5SDZqZX-64" value="" style="endArrow=none;html=1;rounded=0;entryX=0.314;entryY=0.938;entryDx=0;entryDy=0;exitX=0.75;exitY=0;exitDx=0;exitDy=0;entryPerimeter=0;" edge="1" parent="1" target="z_t3NJwSn25sg5SDZqZX-62" source="j8BEduWui1V6I7mG3_1c-6">
          <mxGeometry width="50" height="50" relative="1" as="geometry">
            <mxPoint x="-312" y="-1128.75" as="sourcePoint" />
            <mxPoint x="-325" y="-1218.75" as="targetPoint" />
          </mxGeometry>
        </mxCell>
        <mxCell id="z_t3NJwSn25sg5SDZqZX-65" value="Name" style="ellipse;whiteSpace=wrap;html=1;rotation=-30;" vertex="1" parent="1">
          <mxGeometry x="-500" y="-1178.75" width="120" height="40" as="geometry" />
        </mxCell>
        <mxCell id="z_t3NJwSn25sg5SDZqZX-66" value="" style="endArrow=none;html=1;rounded=0;exitX=0;exitY=0;exitDx=0;exitDy=0;entryX=0.5;entryY=1;entryDx=0;entryDy=0;" edge="1" parent="1" source="z_t3NJwSn25sg5SDZqZX-65" target="z_t3NJwSn25sg5SDZqZX-69">
          <mxGeometry width="50" height="50" relative="1" as="geometry">
            <mxPoint x="-541" y="-1138.75" as="sourcePoint" />
            <mxPoint x="-551" y="-1194.75" as="targetPoint" />
          </mxGeometry>
        </mxCell>
        <mxCell id="z_t3NJwSn25sg5SDZqZX-67" value="" style="endArrow=none;html=1;rounded=0;exitX=0.5;exitY=0;exitDx=0;exitDy=0;entryX=0.5;entryY=1;entryDx=0;entryDy=0;" edge="1" parent="1" source="z_t3NJwSn25sg5SDZqZX-65" target="z_t3NJwSn25sg5SDZqZX-68">
          <mxGeometry width="50" height="50" relative="1" as="geometry">
            <mxPoint x="-497.5" y="-1148.75" as="sourcePoint" />
            <mxPoint x="-491" y="-1208.75" as="targetPoint" />
          </mxGeometry>
        </mxCell>
        <mxCell id="z_t3NJwSn25sg5SDZqZX-68" value="Lname" style="ellipse;whiteSpace=wrap;html=1;" vertex="1" parent="1">
          <mxGeometry x="-540" y="-1288.75" width="120" height="40" as="geometry" />
        </mxCell>
        <mxCell id="z_t3NJwSn25sg5SDZqZX-69" value="Fname" style="ellipse;whiteSpace=wrap;html=1;rotation=-30;" vertex="1" parent="1">
          <mxGeometry x="-620" y="-1231.25" width="104.87" height="42.5" as="geometry" />
        </mxCell>
        <mxCell id="z_t3NJwSn25sg5SDZqZX-70" value="" style="endArrow=none;html=1;rounded=0;exitX=1;exitY=0;exitDx=0;exitDy=0;" edge="1" parent="1" target="z_t3NJwSn25sg5SDZqZX-71" source="j8BEduWui1V6I7mG3_1c-6">
          <mxGeometry width="50" height="50" relative="1" as="geometry">
            <mxPoint x="-290" y="-1098.75" as="sourcePoint" />
            <mxPoint x="-160" y="-1128.75" as="targetPoint" />
          </mxGeometry>
        </mxCell>
        <mxCell id="z_t3NJwSn25sg5SDZqZX-71" value="Uni/faculty" style="ellipse;whiteSpace=wrap;html=1;" vertex="1" parent="1">
          <mxGeometry x="-250" y="-1138.75" width="110" height="35" as="geometry" />
        </mxCell>
        <mxCell id="z_t3NJwSn25sg5SDZqZX-72" value="PhoneNum" style="ellipse;shape=doubleEllipse;margin=3;whiteSpace=wrap;html=1;align=center;rotation=15;" vertex="1" parent="1">
          <mxGeometry x="-388.71000000000004" y="-1258.58" width="130" height="50" as="geometry" />
        </mxCell>
        <mxCell id="z_t3NJwSn25sg5SDZqZX-74" value="" style="endArrow=none;html=1;rounded=0;exitX=0.5;exitY=1;exitDx=0;exitDy=0;entryX=0.144;entryY=0.045;entryDx=0;entryDy=0;entryPerimeter=0;" edge="1" parent="1" source="z_t3NJwSn25sg5SDZqZX-65" target="j8BEduWui1V6I7mG3_1c-6">
          <mxGeometry relative="1" as="geometry">
            <mxPoint x="-270" y="-1208.75" as="sourcePoint" />
            <mxPoint x="-110" y="-1208.75" as="targetPoint" />
          </mxGeometry>
        </mxCell>
        <mxCell id="z_t3NJwSn25sg5SDZqZX-75" value="StudentID" style="ellipse;whiteSpace=wrap;html=1;align=center;fontStyle=4;" vertex="1" parent="1">
          <mxGeometry x="-630" y="-1138.75" width="100" height="40" as="geometry" />
        </mxCell>
        <mxCell id="z_t3NJwSn25sg5SDZqZX-77" value="" style="endArrow=none;html=1;rounded=0;exitX=1;exitY=0.5;exitDx=0;exitDy=0;entryX=0;entryY=0.5;entryDx=0;entryDy=0;" edge="1" parent="1" source="z_t3NJwSn25sg5SDZqZX-75" target="j8BEduWui1V6I7mG3_1c-6">
          <mxGeometry relative="1" as="geometry">
            <mxPoint x="-350" y="-1018.75" as="sourcePoint" />
            <mxPoint x="-190" y="-1018.75" as="targetPoint" />
          </mxGeometry>
        </mxCell>
        <mxCell id="z_t3NJwSn25sg5SDZqZX-78" value="&lt;u&gt;ProID&lt;/u&gt;" style="ellipse;whiteSpace=wrap;html=1;rotation=-30;" vertex="1" parent="1">
          <mxGeometry x="661.65" y="-140" width="110" height="40" as="geometry" />
        </mxCell>
        <mxCell id="z_t3NJwSn25sg5SDZqZX-79" value="" style="endArrow=none;html=1;rounded=0;entryX=0.5;entryY=1;entryDx=0;entryDy=0;exitX=0;exitY=0.5;exitDx=0;exitDy=0;" edge="1" parent="1" target="z_t3NJwSn25sg5SDZqZX-78" source="j8BEduWui1V6I7mG3_1c-1">
          <mxGeometry width="50" height="50" relative="1" as="geometry">
            <mxPoint x="811.2899999999998" y="-41.03" as="sourcePoint" />
            <mxPoint x="670.36" y="12.939999999999998" as="targetPoint" />
          </mxGeometry>
        </mxCell>
        <mxCell id="z_t3NJwSn25sg5SDZqZX-81" value="TeamID" style="ellipse;whiteSpace=wrap;html=1;rotation=45;" vertex="1" parent="1">
          <mxGeometry x="1030" y="-180" width="120" height="40" as="geometry" />
        </mxCell>
        <mxCell id="z_t3NJwSn25sg5SDZqZX-82" value="" style="endArrow=none;html=1;rounded=0;entryX=0.671;entryY=0.975;entryDx=0;entryDy=0;entryPerimeter=0;exitX=1;exitY=0.5;exitDx=0;exitDy=0;" edge="1" parent="1" target="z_t3NJwSn25sg5SDZqZX-81" source="j8BEduWui1V6I7mG3_1c-1">
          <mxGeometry width="50" height="50" relative="1" as="geometry">
            <mxPoint x="950" y="-50" as="sourcePoint" />
            <mxPoint x="1268" y="45" as="targetPoint" />
          </mxGeometry>
        </mxCell>
        <mxCell id="z_t3NJwSn25sg5SDZqZX-83" value="Role" style="ellipse;whiteSpace=wrap;html=1;rotation=-10;" vertex="1" parent="1">
          <mxGeometry x="-430" y="-1318.75" width="110" height="40" as="geometry" />
        </mxCell>
        <mxCell id="z_t3NJwSn25sg5SDZqZX-84" value="" style="endArrow=none;html=1;rounded=0;entryX=0.314;entryY=0.938;entryDx=0;entryDy=0;entryPerimeter=0;exitX=0.352;exitY=0.014;exitDx=0;exitDy=0;exitPerimeter=0;" edge="1" parent="1" target="z_t3NJwSn25sg5SDZqZX-83" source="j8BEduWui1V6I7mG3_1c-6">
          <mxGeometry width="50" height="50" relative="1" as="geometry">
            <mxPoint x="-210" y="-878.75" as="sourcePoint" />
            <mxPoint x="-316.28999999999996" y="-1018.75" as="targetPoint" />
          </mxGeometry>
        </mxCell>
        <mxCell id="z_t3NJwSn25sg5SDZqZX-86" value="Has" style="shape=rhombus;perimeter=rhombusPerimeter;whiteSpace=wrap;html=1;align=center;rotation=0;" vertex="1" parent="1">
          <mxGeometry x="240" y="-1062.92" width="120" height="54" as="geometry" />
        </mxCell>
        <mxCell id="z_t3NJwSn25sg5SDZqZX-91" value="" style="endArrow=none;html=1;rounded=0;entryX=1;entryY=0.5;entryDx=0;entryDy=0;exitX=0;exitY=0.5;exitDx=0;exitDy=0;" edge="1" parent="1" source="z_t3NJwSn25sg5SDZqZX-86" target="j8BEduWui1V6I7mG3_1c-6">
          <mxGeometry relative="1" as="geometry">
            <mxPoint x="-80" y="-1378.58" as="sourcePoint" />
            <mxPoint x="80" y="-1378.58" as="targetPoint" />
          </mxGeometry>
        </mxCell>
        <mxCell id="z_t3NJwSn25sg5SDZqZX-92" value="Task" style="whiteSpace=wrap;html=1;align=center;" vertex="1" parent="1">
          <mxGeometry x="500" y="-670" width="140" height="50" as="geometry" />
        </mxCell>
        <mxCell id="z_t3NJwSn25sg5SDZqZX-93" value="" style="endArrow=none;html=1;rounded=0;exitX=1;exitY=0.5;exitDx=0;exitDy=0;" edge="1" parent="1" source="z_t3NJwSn25sg5SDZqZX-86" target="j8BEduWui1V6I7mG3_1c-2">
          <mxGeometry relative="1" as="geometry">
            <mxPoint x="130" y="-1368.75" as="sourcePoint" />
            <mxPoint x="-120" y="-1208.58" as="targetPoint" />
          </mxGeometry>
        </mxCell>
        <mxCell id="z_t3NJwSn25sg5SDZqZX-97" value="1" style="text;html=1;align=center;verticalAlign=middle;resizable=0;points=[];autosize=1;strokeColor=none;fillColor=none;" vertex="1" parent="1">
          <mxGeometry x="345" y="-1072" width="30" height="30" as="geometry" />
        </mxCell>
        <mxCell id="z_t3NJwSn25sg5SDZqZX-98" value="M" style="text;html=1;align=center;verticalAlign=middle;resizable=0;points=[];autosize=1;strokeColor=none;fillColor=none;" vertex="1" parent="1">
          <mxGeometry x="195" y="-1072" width="30" height="30" as="geometry" />
        </mxCell>
        <mxCell id="z_t3NJwSn25sg5SDZqZX-99" value="HR" style="whiteSpace=wrap;html=1;align=center;" vertex="1" parent="1">
          <mxGeometry x="1010" y="-600" width="100" height="40" as="geometry" />
        </mxCell>
        <mxCell id="z_t3NJwSn25sg5SDZqZX-112" value="Course" style="whiteSpace=wrap;html=1;align=center;" vertex="1" parent="1">
          <mxGeometry x="-388.71" y="-730" width="100" height="40" as="geometry" />
        </mxCell>
        <mxCell id="z_t3NJwSn25sg5SDZqZX-113" value="enroll" style="shape=rhombus;perimeter=rhombusPerimeter;whiteSpace=wrap;html=1;align=center;" vertex="1" parent="1">
          <mxGeometry x="-400.00000000000006" y="-914.42" width="120" height="60" as="geometry" />
        </mxCell>
        <mxCell id="z_t3NJwSn25sg5SDZqZX-114" value="" style="endArrow=none;html=1;rounded=0;exitX=0.5;exitY=1;exitDx=0;exitDy=0;entryX=0.5;entryY=0;entryDx=0;entryDy=0;" edge="1" parent="1" target="z_t3NJwSn25sg5SDZqZX-113" source="j8BEduWui1V6I7mG3_1c-6">
          <mxGeometry relative="1" as="geometry">
            <mxPoint x="-404.9987641571006" y="-1132.15" as="sourcePoint" />
            <mxPoint x="-318.1500317716075" y="-792.4199841141962" as="targetPoint" />
          </mxGeometry>
        </mxCell>
        <mxCell id="z_t3NJwSn25sg5SDZqZX-115" value="" style="endArrow=none;html=1;rounded=0;exitX=0.5;exitY=1;exitDx=0;exitDy=0;entryX=0.5;entryY=0;entryDx=0;entryDy=0;" edge="1" parent="1" source="z_t3NJwSn25sg5SDZqZX-113" target="z_t3NJwSn25sg5SDZqZX-112">
          <mxGeometry relative="1" as="geometry">
            <mxPoint x="-476.35" y="-812.42" as="sourcePoint" />
            <mxPoint x="-386.35" y="-812.42" as="targetPoint" />
          </mxGeometry>
        </mxCell>
        <mxCell id="z_t3NJwSn25sg5SDZqZX-117" value="M" style="text;html=1;align=center;verticalAlign=middle;resizable=0;points=[];autosize=1;strokeColor=none;fillColor=none;" vertex="1" parent="1">
          <mxGeometry x="-338.71000000000004" y="-854.42" width="30" height="30" as="geometry" />
        </mxCell>
        <mxCell id="z_t3NJwSn25sg5SDZqZX-118" value="1" style="text;html=1;align=center;verticalAlign=middle;resizable=0;points=[];autosize=1;strokeColor=none;fillColor=none;" vertex="1" parent="1">
          <mxGeometry x="-350" y="-944.42" width="30" height="30" as="geometry" />
        </mxCell>
        <mxCell id="z_t3NJwSn25sg5SDZqZX-119" value="Upload" style="shape=rhombus;perimeter=rhombusPerimeter;whiteSpace=wrap;html=1;align=center;rotation=25;" vertex="1" parent="1">
          <mxGeometry x="-60" y="-914.42" width="120" height="60" as="geometry" />
        </mxCell>
        <mxCell id="z_t3NJwSn25sg5SDZqZX-120" value="" style="endArrow=none;html=1;rounded=0;exitX=1;exitY=1;exitDx=0;exitDy=0;entryX=0;entryY=0.5;entryDx=0;entryDy=0;" edge="1" parent="1" source="j8BEduWui1V6I7mG3_1c-6" target="z_t3NJwSn25sg5SDZqZX-119">
          <mxGeometry relative="1" as="geometry">
            <mxPoint x="150" y="-660" as="sourcePoint" />
            <mxPoint x="310" y="-660" as="targetPoint" />
          </mxGeometry>
        </mxCell>
        <mxCell id="z_t3NJwSn25sg5SDZqZX-121" value="" style="endArrow=none;html=1;rounded=0;exitX=1;exitY=0.5;exitDx=0;exitDy=0;entryX=0;entryY=0.5;entryDx=0;entryDy=0;" edge="1" parent="1" source="z_t3NJwSn25sg5SDZqZX-119" target="z_t3NJwSn25sg5SDZqZX-92">
          <mxGeometry relative="1" as="geometry">
            <mxPoint x="150" y="-660" as="sourcePoint" />
            <mxPoint x="310" y="-660" as="targetPoint" />
          </mxGeometry>
        </mxCell>
        <mxCell id="z_t3NJwSn25sg5SDZqZX-128" value="board" style="whiteSpace=wrap;html=1;align=center;" vertex="1" parent="1">
          <mxGeometry x="1300" y="-1047.75" width="100" height="40" as="geometry" />
        </mxCell>
        <mxCell id="z_t3NJwSn25sg5SDZqZX-129" value="Has" style="shape=rhombus;perimeter=rhombusPerimeter;whiteSpace=wrap;html=1;align=center;" vertex="1" parent="1">
          <mxGeometry x="990" y="-1073.8700000000001" width="150" height="92.25" as="geometry" />
        </mxCell>
        <mxCell id="z_t3NJwSn25sg5SDZqZX-137" value="" style="endArrow=none;html=1;rounded=0;exitX=1;exitY=0.5;exitDx=0;exitDy=0;entryX=0;entryY=0.5;entryDx=0;entryDy=0;" edge="1" parent="1" source="j8BEduWui1V6I7mG3_1c-2" target="z_t3NJwSn25sg5SDZqZX-129">
          <mxGeometry relative="1" as="geometry">
            <mxPoint x="1050" y="-940" as="sourcePoint" />
            <mxPoint x="1210" y="-940" as="targetPoint" />
          </mxGeometry>
        </mxCell>
        <mxCell id="z_t3NJwSn25sg5SDZqZX-138" value="" style="endArrow=none;html=1;rounded=0;exitX=1;exitY=0.5;exitDx=0;exitDy=0;entryX=0;entryY=0.5;entryDx=0;entryDy=0;" edge="1" parent="1" source="z_t3NJwSn25sg5SDZqZX-129" target="z_t3NJwSn25sg5SDZqZX-128">
          <mxGeometry relative="1" as="geometry">
            <mxPoint x="1150" y="-1036.35" as="sourcePoint" />
            <mxPoint x="1345" y="-1036.35" as="targetPoint" />
          </mxGeometry>
        </mxCell>
        <mxCell id="z_t3NJwSn25sg5SDZqZX-139" value="1" style="text;html=1;align=center;verticalAlign=middle;resizable=0;points=[];autosize=1;strokeColor=none;fillColor=none;" vertex="1" parent="1">
          <mxGeometry x="965" y="-1062" width="30" height="30" as="geometry" />
        </mxCell>
        <mxCell id="z_t3NJwSn25sg5SDZqZX-140" value="M" style="text;html=1;align=center;verticalAlign=middle;resizable=0;points=[];autosize=1;strokeColor=none;fillColor=none;" vertex="1" parent="1">
          <mxGeometry x="1135" y="-1052" width="30" height="30" as="geometry" />
        </mxCell>
        <mxCell id="z_t3NJwSn25sg5SDZqZX-141" value="1" style="text;html=1;align=center;verticalAlign=middle;resizable=0;points=[];autosize=1;strokeColor=none;fillColor=none;" vertex="1" parent="1">
          <mxGeometry x="-65" y="-942" width="30" height="30" as="geometry" />
        </mxCell>
        <mxCell id="z_t3NJwSn25sg5SDZqZX-142" value="M" style="text;html=1;align=center;verticalAlign=middle;resizable=0;points=[];autosize=1;strokeColor=none;fillColor=none;" vertex="1" parent="1">
          <mxGeometry x="65" y="-882" width="30" height="30" as="geometry" />
        </mxCell>
        <mxCell id="z_t3NJwSn25sg5SDZqZX-143" value="evaluate" style="shape=rhombus;perimeter=rhombusPerimeter;whiteSpace=wrap;html=1;align=center;rotation=15;" vertex="1" parent="1">
          <mxGeometry x="771.65" y="-640" width="120" height="60" as="geometry" />
        </mxCell>
        <mxCell id="z_t3NJwSn25sg5SDZqZX-144" value="" style="endArrow=none;html=1;rounded=0;exitX=1;exitY=0.5;exitDx=0;exitDy=0;entryX=0;entryY=0.5;entryDx=0;entryDy=0;" edge="1" parent="1" source="z_t3NJwSn25sg5SDZqZX-92" target="z_t3NJwSn25sg5SDZqZX-143">
          <mxGeometry relative="1" as="geometry">
            <mxPoint x="700" y="-760" as="sourcePoint" />
            <mxPoint x="860" y="-760" as="targetPoint" />
          </mxGeometry>
        </mxCell>
        <mxCell id="z_t3NJwSn25sg5SDZqZX-145" value="" style="endArrow=none;html=1;rounded=0;exitX=1;exitY=0.5;exitDx=0;exitDy=0;entryX=0;entryY=0.5;entryDx=0;entryDy=0;" edge="1" parent="1" source="z_t3NJwSn25sg5SDZqZX-143" target="z_t3NJwSn25sg5SDZqZX-99">
          <mxGeometry relative="1" as="geometry">
            <mxPoint x="690" y="-690" as="sourcePoint" />
            <mxPoint x="980" y="-580" as="targetPoint" />
          </mxGeometry>
        </mxCell>
        <mxCell id="z_t3NJwSn25sg5SDZqZX-146" value="1" style="text;html=1;align=center;verticalAlign=middle;resizable=0;points=[];autosize=1;strokeColor=none;fillColor=none;" vertex="1" parent="1">
          <mxGeometry x="755" y="-652" width="30" height="30" as="geometry" />
        </mxCell>
        <mxCell id="z_t3NJwSn25sg5SDZqZX-147" value="1" style="text;html=1;align=center;verticalAlign=middle;resizable=0;points=[];autosize=1;strokeColor=none;fillColor=none;" vertex="1" parent="1">
          <mxGeometry x="890" y="-620" width="30" height="30" as="geometry" />
        </mxCell>
        <mxCell id="z_t3NJwSn25sg5SDZqZX-148" value="Title" style="ellipse;whiteSpace=wrap;html=1;align=center;rotation=-30;" vertex="1" parent="1">
          <mxGeometry x="-240" y="-600" width="100" height="40" as="geometry" />
        </mxCell>
        <mxCell id="z_t3NJwSn25sg5SDZqZX-149" value="date" style="ellipse;whiteSpace=wrap;html=1;align=center;" vertex="1" parent="1">
          <mxGeometry x="-360" y="-600" width="100" height="40" as="geometry" />
        </mxCell>
        <mxCell id="z_t3NJwSn25sg5SDZqZX-150" value="instructor" style="ellipse;whiteSpace=wrap;html=1;align=center;" vertex="1" parent="1">
          <mxGeometry x="-475" y="-610" width="100" height="40" as="geometry" />
        </mxCell>
        <mxCell id="z_t3NJwSn25sg5SDZqZX-151" value="" style="endArrow=none;html=1;rounded=0;exitX=0.5;exitY=0;exitDx=0;exitDy=0;entryX=0.107;entryY=1.054;entryDx=0;entryDy=0;entryPerimeter=0;" edge="1" parent="1" source="z_t3NJwSn25sg5SDZqZX-150" target="z_t3NJwSn25sg5SDZqZX-112">
          <mxGeometry relative="1" as="geometry">
            <mxPoint x="-280" y="-520" as="sourcePoint" />
            <mxPoint x="-120" y="-520" as="targetPoint" />
          </mxGeometry>
        </mxCell>
        <mxCell id="z_t3NJwSn25sg5SDZqZX-152" value="" style="endArrow=none;html=1;rounded=0;exitX=0.5;exitY=1;exitDx=0;exitDy=0;entryX=0.5;entryY=0;entryDx=0;entryDy=0;" edge="1" parent="1" source="z_t3NJwSn25sg5SDZqZX-112" target="z_t3NJwSn25sg5SDZqZX-149">
          <mxGeometry relative="1" as="geometry">
            <mxPoint x="-280" y="-520" as="sourcePoint" />
            <mxPoint x="-120" y="-520" as="targetPoint" />
          </mxGeometry>
        </mxCell>
        <mxCell id="z_t3NJwSn25sg5SDZqZX-153" value="" style="endArrow=none;html=1;rounded=0;exitX=0.875;exitY=1.031;exitDx=0;exitDy=0;exitPerimeter=0;entryX=0.5;entryY=0;entryDx=0;entryDy=0;" edge="1" parent="1" source="z_t3NJwSn25sg5SDZqZX-112" target="z_t3NJwSn25sg5SDZqZX-148">
          <mxGeometry relative="1" as="geometry">
            <mxPoint x="-280" y="-520" as="sourcePoint" />
            <mxPoint x="-120" y="-520" as="targetPoint" />
          </mxGeometry>
        </mxCell>
        <mxCell id="z_t3NJwSn25sg5SDZqZX-159" value="&lt;u&gt;TaskId&lt;/u&gt;" style="ellipse;whiteSpace=wrap;html=1;align=center;" vertex="1" parent="1">
          <mxGeometry x="440" y="-560" width="100" height="40" as="geometry" />
        </mxCell>
        <mxCell id="z_t3NJwSn25sg5SDZqZX-160" value="" style="ellipse;whiteSpace=wrap;html=1;align=center;" vertex="1" parent="1">
          <mxGeometry x="590" y="-550" width="100" height="40" as="geometry" />
        </mxCell>
        <mxCell id="z_t3NJwSn25sg5SDZqZX-161" value="" style="endArrow=none;html=1;rounded=0;entryX=0.301;entryY=1.11;entryDx=0;entryDy=0;entryPerimeter=0;exitX=0.618;exitY=0.019;exitDx=0;exitDy=0;exitPerimeter=0;" edge="1" parent="1" source="z_t3NJwSn25sg5SDZqZX-159" target="z_t3NJwSn25sg5SDZqZX-92">
          <mxGeometry relative="1" as="geometry">
            <mxPoint x="400" y="-560" as="sourcePoint" />
            <mxPoint x="560" y="-560" as="targetPoint" />
          </mxGeometry>
        </mxCell>
        <mxCell id="z_t3NJwSn25sg5SDZqZX-162" value="" style="endArrow=none;html=1;rounded=0;entryX=0.75;entryY=1;entryDx=0;entryDy=0;exitX=0.403;exitY=0.041;exitDx=0;exitDy=0;exitPerimeter=0;" edge="1" parent="1" source="z_t3NJwSn25sg5SDZqZX-160" target="z_t3NJwSn25sg5SDZqZX-92">
          <mxGeometry relative="1" as="geometry">
            <mxPoint x="512" y="-549" as="sourcePoint" />
            <mxPoint x="552" y="-604" as="targetPoint" />
          </mxGeometry>
        </mxCell>
      </root>
    </mxGraphModel>
  </diagram>
</mxfile>
